<?xml version="1.0" standalone="no"?>
<!DOCTYPE svg PUBLIC "-//W3C//DTD SVG 20010904//EN"
 "http://www.w3.org/TR/2001/REC-SVG-20010904/DTD/svg10.dtd">
<svg version="1.0" xmlns="http://www.w3.org/2000/svg"
 width="1058.000000pt" height="1058.000000pt" viewBox="0 0 1058.000000 1058.000000"
 preserveAspectRatio="xMidYMid meet">
<metadata>
Created by potrace 1.11, written by Peter Selinger 2001-2013
</metadata>
<g transform="translate(0.000000,1058.000000) scale(0.100000,-0.100000)"
fill="#000000" stroke="none">
<path d="M5067 10444 c-1 -1 -51 -5 -112 -9 -60 -3 -123 -8 -140 -10 -16 -1
-59 -6 -95 -9 -36 -4 -90 -11 -120 -16 -30 -5 -75 -11 -100 -14 -25 -4 -54 -8
-65 -10 -11 -2 -72 -14 -135 -25 -114 -22 -305 -67 -410 -98 -30 -9 -55 -15
-55 -14 0 3 -327 -110 -413 -143 -131 -52 -360 -156 -472 -215 -52 -28 -102
-54 -110 -58 -73 -33 -379 -224 -550 -344 -228 -160 -581 -474 -790 -704 -537
-589 -926 -1279 -1145 -2030 -38 -130 -67 -240 -81 -310 -2 -11 -8 -40 -14
-65 -17 -80 -54 -287 -64 -365 -35 -271 -41 -366 -41 -705 0 -297 6 -431 25
-575 5 -38 12 -92 15 -120 4 -27 15 -99 25 -160 11 -60 22 -126 25 -145 12
-72 73 -321 107 -435 240 -823 680 -1571 1280 -2175 130 -131 215 -212 313
-295 32 -27 63 -55 69 -60 21 -20 233 -182 311 -237 77 -55 342 -228 348 -228
2 0 44 -23 93 -51 606 -349 1312 -569 2059 -644 242 -24 690 -24 940 0 132 12
371 45 449 61 11 2 37 7 56 10 19 3 51 9 70 14 19 5 46 11 60 14 168 30 567
151 752 227 39 16 74 29 79 29 7 0 57 22 219 97 203 93 419 212 645 355 136
86 384 272 551 413 114 97 296 273 434 421 231 248 482 585 647 869 22 39 53
90 67 115 49 83 246 490 246 506 0 3 7 20 15 37 135 294 304 921 340 1267 4
36 9 73 11 83 5 26 23 239 29 332 5 88 6 461 1 540 -9 131 -18 237 -27 310 -5
44 -12 100 -15 125 -3 25 -12 86 -21 135 -8 50 -17 104 -20 120 -4 28 -18 91
-48 230 -39 176 -154 540 -230 725 -214 528 -521 1034 -869 1435 -34 38 -72
83 -86 99 -44 51 -323 329 -395 393 -148 130 -263 223 -415 333 -412 300 -877
540 -1365 706 -133 46 -422 128 -485 139 -19 3 -62 12 -95 20 -123 28 -379 70
-490 80 -16 1 -55 5 -85 8 -141 15 -243 20 -473 22 -136 1 -248 1 -250 -1z"/>
</g>
</svg>
